<?xml version="1.0" encoding="UTF-8"?>
<svg id="Capa_1" data-name="Capa 1" xmlns="http://www.w3.org/2000/svg" viewBox="0 0 842.04 592.28">
  <defs>
    <style>
      .cls-1 {
        fill: #053a8b;
      }

      .cls-1, .cls-2, .cls-3 {
        stroke-width: 0px;
      }

      .cls-3 {
        fill: #dae3f3;
      }
    </style>
  </defs>
  <g id="svg_2" data-name="svg 2">
    <g id="svg_3" data-name="svg 3">
      <rect id="svg_4" data-name="svg 4" class="cls-3" x="-.36" y="0" width="841.47" height="595.28"/>
      <g id="svg_5" data-name="svg 5">
        <g id="svg_6" data-name="svg 6">
          <path id="svg_7" data-name="svg 7" class="cls-1" d="M311.5,483.23c0,4.18-33.07-24.12-59.75-43.46,0,0,61.09-114.4,16.9-327.41,0,0,79.5,24.33,79,28.15-2.91,22.39-36.07,130.42-36.15,342.72Z"/>
          <path id="svg_8" data-name="svg 8" class="cls-1" d="M182.18,380.03c-155.07-101.87,29.63-245.92,29.63-245.92,0,0-301.93,171.37-41.41,261.66,20.83,7.21,74.74,14.23,135.33,17.07-.01,0-87.7-9.24-123.55-32.81h0Z"/>
          <path id="svg_9" data-name="svg 9" class="cls-1" d="M188.87,131.51s72.32,6.04,61.83,54.39c-17.62,81.17-200.32,111.55-208.88,112.09-9.2.59,167.23-46.32,182.67-122.35,7.29-35.89-35.62-44.13-35.62-44.13h0Z"/>
        </g>
        <g id="svg_10" data-name="svg 10">
          <g id="svg_11" data-name="svg 11">
            <path id="svg_12" data-name="svg 12" class="cls-2" d="M397.42,235.56l12.55-58.76h7.89l12.53,58.76h-7.8l-2.7-14.82h-11.94l-2.79,14.82h-7.74ZM409.05,214.91h9.8l-4.92-26.54-4.88,26.54h0Z"/>
            <path id="svg_13" data-name="svg 13" class="cls-2" d="M449.24,236.27c-5.35,0-9.2-1.69-11.54-5.05-2.38-3.38-3.57-8.35-3.57-14.94v-19.66c0-2.7.16-5.06.45-7.09s.81-3.91,1.53-5.63c.7-1.72,1.66-3.13,2.85-4.21,1.17-1.09,2.68-1.93,4.5-2.53s3.96-.91,6.41-.91c5.44,0,9.35,1.38,11.72,4.14,2.38,2.76,3.58,7.1,3.58,13.05v2.16h-7.71v-1.85c0-1.66-.04-3.01-.14-4.07-.09-1.09-.27-2.11-.58-3.08-.29-.95-.72-1.73-1.28-2.25s-1.28-.95-2.18-1.26-2-.47-3.33-.47c-1.01,0-1.91.13-2.7.34-.77.22-1.42.52-1.98.89-.54.37-.99.87-1.35,1.52-.36.65-.65,1.29-.86,1.92-.22.62-.38,1.43-.5,2.4-.13.97-.2,1.87-.22,2.68-.02.8-.04,1.8-.04,3.01v21.75c0,4.5.56,7.74,1.64,9.72,1.08,1.95,3.17,2.94,6.23,2.94s5.19-1.08,6.32-3.21c1.13-2.11,1.71-5.55,1.71-10.23v-4.11h-7.45v-5.83h14.89v29.14h-5.2l-.79-6.76c-1.77,4.99-5.24,7.48-10.41,7.48h0Z"/>
            <polygon id="svg_14" data-name="svg 14" class="cls-2" points="473.21 235.56 473.21 176.81 495.95 176.81 495.95 182.88 481.4 182.88 481.4 202.29 493.23 202.29 493.23 208.13 481.4 208.13 481.4 229.68 496.13 229.68 496.13 235.56 473.21 235.56"/>
            <polygon id="svg_15" data-name="svg 15" class="cls-2" points="501.89 235.56 501.89 176.81 507.44 176.81 524.13 215.82 524.13 176.81 530.97 176.81 530.97 235.56 525.73 235.56 508.8 195.42 508.8 235.56 501.89 235.56"/>
            <path id="svg_16" data-name="svg 16" class="cls-2" d="M553.98,236.19c-2.43,0-4.57-.33-6.41-.99-1.84-.66-3.35-1.57-4.52-2.7-1.17-1.12-2.11-2.53-2.86-4.23-.76-1.69-1.26-3.46-1.55-5.33-.27-1.85-.43-3.94-.43-6.27v-20.77c0-2.48.16-4.69.45-6.63.29-1.94.81-3.74,1.55-5.42s1.69-3.06,2.86-4.15c1.19-1.08,2.68-1.94,4.52-2.54,1.84-.61,3.96-.93,6.39-.93,5.29,0,9.08,1.43,11.38,4.29,2.29,2.87,3.44,7.07,3.44,12.61v4.68h-7.76v-4.14c0-.91-.02-1.61-.04-2.12,0-.51-.04-1.14-.05-1.89-.04-.77-.13-1.34-.2-1.77-.11-.41-.22-.93-.38-1.48-.16-.59-.34-1.02-.58-1.34-.23-.32-.54-.66-.9-1.02-.34-.38-.76-.64-1.21-.83-.43-.17-.97-.32-1.58-.44-.63-.12-1.3-.19-2.05-.19-1.13,0-2.13.14-2.97.38-.86.24-1.57.63-2.11,1.17s-.97,1.12-1.33,1.76c-.34.63-.59,1.45-.76,2.46-.16,1-.29,1.98-.34,2.91-.05.93-.09,2.08-.09,3.45v23.25c0,4.41.56,7.48,1.66,9.2,1.12,1.73,3.1,2.59,5.94,2.59,1.08,0,2.03-.13,2.81-.36.79-.22,1.44-.62,1.96-1.17.5-.54.9-1.1,1.21-1.69.32-.59.54-1.39.69-2.39.14-1.01.23-1.93.25-2.79.04-.85.07-1.96.07-3.33v-4.32h7.76v4.37c0,2.24-.14,4.25-.43,6.01-.29,1.78-.77,3.44-1.46,4.99-.68,1.55-1.58,2.84-2.68,3.85-1.12,1.01-2.54,1.8-4.25,2.39-1.73.59-3.73.87-6,.87h0Z"/>
            <rect id="svg_17" data-name="svg 17" class="cls-2" x="576.19" y="176.81" width="8.03" height="58.76"/>
            <path id="svg_18" data-name="svg 18" class="cls-2" d="M589.62,235.56l12.55-58.76h7.89l12.53,58.76h-7.78l-2.7-14.82h-11.94l-2.81,14.82h-7.74ZM601.25,214.91h9.81l-4.93-26.54-4.88,26.54Z"/>
          </g>
          <g id="svg_19" data-name="svg 19">
            <path id="svg_20" data-name="svg 20" class="cls-2" d="M484.26,327.21l12.55-58.75h7.91l12.53,58.75h-7.8l-2.7-14.81h-11.94l-2.79,14.81h-7.76,0ZM495.89,306.56h9.8l-4.92-26.54-4.88,26.54h0Z"/>
            <g id="svg_21" data-name="svg 21">
              <polygon id="svg_22" data-name="svg 22" class="cls-2" points="397.42 327.21 397.42 268.46 420.18 268.46 420.18 274.52 405.61 274.52 405.61 293.92 417.44 293.92 417.44 299.78 405.61 299.78 405.61 321.33 420.34 321.33 420.34 327.21 397.42 327.21"/>
              <path id="svg_23" data-name="svg 23" class="cls-2" d="M439.91,327.85c-4.93,0-8.7-1.52-11.29-4.57-2.57-3.04-4.03-7.21-4.34-12.51l7.29-1.99c.54,8.41,3.29,12.62,8.32,12.62,2.11,0,3.71-.59,4.81-1.76s1.66-2.88,1.66-5.16c0-1.24-.16-2.39-.45-3.43-.29-1.04-.77-2.03-1.46-2.97-.67-.95-1.31-1.73-1.91-2.36-.59-.63-1.46-1.46-2.56-2.5l-9.87-8.75c-1.98-1.8-3.4-3.69-4.34-5.69-.9-2-1.35-4.43-1.35-7.31,0-4.25,1.24-7.56,3.69-9.94,2.48-2.38,5.85-3.58,10.14-3.63,4.7-.08,8.21,1.13,10.55,3.63s3.75,6.35,4.21,11.58l-6.9,1.91c-.11-1.28-.22-2.41-.4-3.4-.16-.98-.45-2-.81-2.99-.38-1.01-.85-1.82-1.39-2.45s-1.26-1.12-2.16-1.49c-.9-.36-1.93-.51-3.12-.43-4.32.3-6.48,2.45-6.48,6.44,0,1.74.29,3.18.88,4.33.59,1.17,1.58,2.38,2.97,3.65l9.94,8.74c2.56,2.32,4.61,4.8,6.14,7.45,1.51,2.65,2.29,5.65,2.29,9.01,0,4.29-1.3,7.69-3.91,10.2-2.57,2.52-5.97,3.77-10.15,3.77h0Z"/>
              <polygon id="svg_24" data-name="svg 24" class="cls-2" points="465.59 327.21 465.59 274.52 454.86 274.52 454.86 268.46 484.12 268.46 484.12 274.52 473.76 274.52 473.76 327.21 465.59 327.21"/>
              <polygon id="svg_25" data-name="svg 25" class="cls-2" points="526.02 327.21 526.02 274.52 515.29 274.52 515.29 268.46 544.57 268.46 544.57 274.52 534.21 274.52 534.21 327.21 526.02 327.21"/>
              <path id="svg_26" data-name="svg 26" class="cls-2" d="M544.73,327.21l12.51-58.75h7.9l12.55,58.75h-7.8l-2.7-14.81h-11.94l-2.81,14.81h-7.71ZM556.34,306.56h9.81l-4.93-26.54-4.88,26.54Z"/>
              <polygon id="svg_27" data-name="svg 27" class="cls-2" points="582.78 327.21 582.78 268.46 590.97 268.46 590.97 321.33 605.97 321.33 605.97 327.21 582.78 327.21"/>
              <path id="svg_28" data-name="svg 28" class="cls-2" d="M626.42,327.21v-58.75h12.77c6.34,0,10.84,1.45,13.45,4.32,2.61,2.89,3.91,7.43,3.91,13.62v21.61c0,6.46-1.3,11.28-3.89,14.43-2.58,3.18-6.88,4.77-12.87,4.77h-13.37ZM634.62,321.34h4.61c1.24,0,2.36-.13,3.29-.38.97-.22,1.76-.55,2.41-.89.61-.33,1.17-.88,1.6-1.64s.77-1.46.97-2.11c.23-.63.41-1.58.54-2.83.11-1.26.18-2.32.2-3.2.02-.9.04-2.18.04-3.85v-19.09c0-1.41-.04-2.61-.07-3.58-.05-.97-.14-1.94-.27-2.9-.16-.97-.36-1.77-.63-2.38-.29-.62-.67-1.21-1.12-1.76-.43-.54-.99-.96-1.66-1.28-.67-.28-1.44-.52-2.34-.68s-1.95-.24-3.17-.24h-4.41v46.81h.01Z"/>
              <polygon id="svg_29" data-name="svg 29" class="cls-2" points="663.79 327.21 663.79 268.46 686.55 268.46 686.55 274.52 671.98 274.52 671.98 293.92 683.81 293.92 683.81 299.78 671.98 299.78 671.98 321.33 686.73 321.33 686.73 327.21 663.79 327.21"/>
            </g>
          </g>
          <g id="svg_30" data-name="svg 30">
            <rect id="svg_31" data-name="svg 31" class="cls-2" x="397.42" y="360.29" width="8.03" height="58.75"/>
            <polygon id="svg_32" data-name="svg 32" class="cls-2" points="414.11 419.04 414.11 360.29 419.67 360.29 436.38 399.3 436.38 360.29 443.21 360.29 443.21 419.04 437.97 419.04 421.02 378.89 421.02 419.04 414.11 419.04"/>
            <polygon id="svg_33" data-name="svg 33" class="cls-2" points="461.75 419.04 448.64 360.29 456.3 360.29 465.57 403.55 474.43 360.29 481.9 360.29 468.92 419.04 461.75 419.04"/>
            <polygon id="svg_34" data-name="svg 34" class="cls-2" points="487.34 419.04 487.34 360.29 510.1 360.29 510.1 366.34 495.53 366.34 495.53 385.76 507.36 385.76 507.36 391.62 495.53 391.62 495.53 413.15 510.28 413.15 510.28 419.04 487.34 419.04"/>
            <path id="svg_35" data-name="svg 35" class="cls-2" d="M529.84,419.69c-4.93,0-8.68-1.53-11.27-4.57-2.59-3.05-4.05-7.22-4.36-12.5l7.29-1.99c.54,8.4,3.3,12.6,8.34,12.6,2.11,0,3.69-.59,4.81-1.74,1.1-1.19,1.64-2.89,1.64-5.18,0-1.24-.14-2.4-.45-3.43-.29-1.03-.77-2.03-1.44-2.97-.68-.94-1.33-1.74-1.91-2.37-.61-.6-1.48-1.45-2.57-2.49l-9.85-8.74c-2-1.79-3.42-3.68-4.34-5.7-.92-2-1.35-4.43-1.35-7.31,0-4.26,1.22-7.56,3.67-9.95,2.49-2.37,5.87-3.57,10.14-3.62,4.7-.08,8.23,1.13,10.55,3.62,2.34,2.5,3.74,6.36,4.23,11.59l-6.91,1.91c-.09-1.28-.22-2.41-.4-3.4-.16-.99-.43-2-.81-2.98-.38-1.01-.85-1.83-1.39-2.46-.54-.62-1.26-1.12-2.14-1.49-.9-.36-1.94-.51-3.13-.43-4.32.31-6.48,2.46-6.48,6.44,0,1.74.31,3.18.88,4.33.59,1.15,1.58,2.38,2.99,3.65l9.92,8.74c2.57,2.32,4.61,4.81,6.14,7.45,1.53,2.65,2.29,5.65,2.29,9.01,0,4.29-1.31,7.71-3.89,10.21-2.62,2.51-6.01,3.77-10.2,3.77h0Z"/>
            <polygon id="svg_36" data-name="svg 36" class="cls-2" points="555.51 419.04 555.51 366.34 544.78 366.34 544.78 360.29 574.04 360.29 574.04 366.34 563.71 366.34 563.71 419.04 555.51 419.04"/>
            <rect id="svg_37" data-name="svg 37" class="cls-2" x="578.06" y="360.29" width="8.05" height="58.75"/>
            <path id="svg_38" data-name="svg 38" class="cls-2" d="M608.76,419.75c-5.33,0-9.18-1.68-11.54-5.06-2.38-3.36-3.57-8.35-3.57-14.93v-19.66c0-2.7.16-5.07.45-7.1.29-2.03.81-3.91,1.53-5.62.72-1.74,1.69-3.13,2.86-4.23,1.19-1.07,2.68-1.93,4.48-2.53,1.82-.58,3.96-.89,6.41-.89,5.44,0,9.36,1.37,11.74,4.14,2.38,2.75,3.57,7.1,3.57,13.04v2.16h-7.69v-1.84c0-1.67-.05-3.02-.14-4.09-.09-1.08-.29-2.11-.58-3.07-.31-.97-.72-1.73-1.28-2.25-.58-.53-1.3-.94-2.2-1.27-.88-.3-2-.45-3.31-.45-1.03,0-1.91.11-2.68.32-.79.23-1.46.52-2,.88-.54.38-.99.89-1.37,1.53-.36.65-.65,1.3-.86,1.91-.2.63-.38,1.44-.5,2.42-.11.98-.18,1.86-.2,2.67-.02.8-.04,1.8-.04,3.02v21.74c0,4.5.54,7.73,1.62,9.7,1.1,1.96,3.17,2.94,6.25,2.94s5.19-1.05,6.32-3.19c1.12-2.13,1.69-5.54,1.69-10.24v-4.11h-7.44v-5.82h14.86v29.13h-5.19l-.77-6.76c-1.76,5.02-5.23,7.51-10.42,7.51h0Z"/>
            <path id="svg_39" data-name="svg 39" class="cls-2" d="M629.48,419.04l12.53-58.75h7.9l12.53,58.75h-7.8l-2.7-14.8h-11.94l-2.81,14.8h-7.71ZM641.1,398.39h9.8l-4.92-26.54-4.88,26.54Z"/>
            <path id="svg_40" data-name="svg 40" class="cls-2" d="M682.21,419.69c-2.45,0-4.57-.33-6.41-1-1.84-.66-3.35-1.56-4.52-2.69-1.17-1.13-2.12-2.54-2.86-4.23-.76-1.69-1.26-3.47-1.55-5.33-.29-1.87-.41-3.96-.41-6.28v-20.76c0-2.49.14-4.69.43-6.62.31-1.95.81-3.75,1.55-5.44.72-1.67,1.68-3.06,2.86-4.14,1.17-1.08,2.68-1.94,4.52-2.55,1.84-.6,3.96-.92,6.39-.92,5.29,0,9.08,1.41,11.36,4.29,2.29,2.87,3.44,7.07,3.44,12.61v4.67h-7.76v-4.14c0-.9,0-1.6-.02-2.12,0-.5-.04-1.13-.07-1.89-.04-.75-.09-1.35-.2-1.77-.09-.42-.2-.91-.36-1.49-.16-.57-.36-1.01-.58-1.33-.23-.32-.54-.66-.88-1.02-.36-.37-.76-.64-1.22-.82-.45-.18-.97-.32-1.6-.45-.59-.11-1.3-.18-2.03-.18-1.15,0-2.14.13-2.99.38-.85.24-1.55.63-2.09,1.17-.54.53-.99,1.11-1.33,1.75-.36.63-.59,1.46-.76,2.47-.18,1-.29,1.98-.34,2.9-.05.94-.09,2.09-.09,3.46v23.25c0,4.41.56,7.49,1.67,9.2,1.1,1.74,3.08,2.58,5.92,2.58,1.08,0,2.02-.12,2.81-.35s1.44-.63,1.94-1.17c.52-.54.94-1.11,1.24-1.69.29-.6.52-1.4.65-2.4.16-1,.23-1.94.27-2.79.04-.86.05-1.96.05-3.33v-4.32h7.76v4.36c0,2.25-.14,4.25-.43,6.01-.27,1.77-.76,3.44-1.44,4.99-.68,1.54-1.58,2.83-2.68,3.84-1.12,1.02-2.54,1.82-4.27,2.39-1.7.59-3.7.9-5.97.9h0Z"/>
            <rect id="svg_41" data-name="svg 41" class="cls-2" x="704.41" y="360.29" width="8.05" height="58.75"/>
            <path id="svg_42" data-name="svg 42" class="cls-2" d="M736.07,419.69c-2.94,0-5.44-.45-7.55-1.33-2.07-.87-3.73-2.14-4.97-3.85-1.23-1.7-2.13-3.68-2.68-5.95-.58-2.27-.85-4.92-.85-7.93v-22.26c0-6.12,1.24-10.76,3.73-13.91s6.61-4.73,12.32-4.73,9.8,1.58,12.3,4.76c2.48,3.18,3.74,7.81,3.74,13.87v22.29c0,6.11-1.26,10.82-3.76,14.09-2.52,3.29-6.61,4.95-12.28,4.95ZM732.07,412.52c1.04.49,2.39.74,4,.74s2.93-.25,3.98-.74c1.06-.5,1.85-1.25,2.4-2.27.56-1.03.92-2.12,1.12-3.35s.31-2.72.31-4.51v-25.72c0-1.77-.11-3.26-.31-4.43-.2-1.18-.58-2.27-1.12-3.26-.54-.99-1.33-1.71-2.4-2.18-1.04-.45-2.38-.68-3.98-.68s-2.94.23-4,.68c-1.04.47-1.84,1.19-2.4,2.18-.54.99-.92,2.09-1.1,3.26-.22,1.19-.31,2.66-.31,4.43v25.72c0,1.79.09,3.29.31,4.51.18,1.22.58,2.32,1.1,3.35.56,1.03,1.35,1.78,2.4,2.27ZM734.07,355.4l4.3-14.36h7.76l-8.12,14.36h-3.94Z"/>
            <polygon id="svg_43" data-name="svg 43" class="cls-2" points="759.37 419.04 759.37 360.29 764.93 360.29 781.62 399.3 781.62 360.29 788.45 360.29 788.45 419.04 783.21 419.04 766.26 378.89 766.26 419.04 759.37 419.04"/>
          </g>
        </g>
      </g>
    </g>
  </g>
</svg>